<svg width="168" height="40" viewBox="0 0 168 40" fill="none" xmlns="http://www.w3.org/2000/svg">
  <svg x="37.951" y="4.000" width="92.098" height="32.000" viewBox="0 0 118 41" fill="none">
<g clip-path="url(#clip0_198_2162)">
<path d="M15.7678 0.148438L16.8322 2.15036C17.0639 2.51148 17.3337 2.84672 17.6369 3.15035C18.5285 4.04194 19.3771 4.97649 20.1368 5.97746C21.9415 8.34754 23.1593 10.9793 24.0294 13.8289C24.5508 15.5691 24.834 17.3523 24.8555 19.157C24.9434 24.5504 23.0938 29.1822 19.3537 33.0318C18.7476 33.642 18.0932 34.2021 17.3966 34.7065C17.0256 34.7065 16.8527 34.4136 16.7004 34.1626C16.4074 33.6743 16.2433 33.1402 16.1564 32.5972C16.0256 31.9449 15.9387 31.2925 15.9826 30.6177V30.313C15.9611 30.2476 15.635 0.301756 15.7648 0.149414L15.7678 0.148438Z" fill="black"/>
<path d="M15.7667 0.0861919C15.7227 -0.00169746 15.6788 0.0647081 15.6358 0.107676C15.6573 0.54224 15.5049 0.933836 15.2647 1.30395C15.004 1.67504 14.6553 1.95628 14.3077 2.26097C12.3722 3.93575 10.8507 5.95818 9.63198 8.21986C8.02263 11.2647 7.17499 14.5264 6.93671 17.9629C6.82929 19.2031 7.32733 23.5741 7.7199 24.8349C8.78434 28.1844 10.6984 30.9891 13.1886 33.4246C13.7979 34.0105 14.4503 34.5554 15.1241 35.0769C15.3194 35.0769 15.3419 34.9031 15.3848 34.7722C15.4705 34.4945 15.5358 34.2108 15.5801 33.9236C15.7754 32.8367 15.8848 31.7488 16.0147 30.6619L15.7754 0.0861919H15.7667Z" fill="#4C4C4C"/>
<path d="M16.8271 36.037C16.8711 35.537 17.1201 35.124 17.3711 34.7109C17.1103 34.6035 16.914 34.3847 16.7617 34.1445C16.6308 33.9267 16.5224 33.6562 16.4355 33.4267C16.1308 32.5136 16.0644 31.5566 15.9785 30.6211V30.0547C15.8711 30.1426 15.8476 30.8808 15.8476 30.9902C15.7822 31.9902 15.6523 32.9697 15.457 33.9257C15.3916 34.3163 15.3496 34.7089 15.1094 35.0566C15.1094 35.1005 15.1094 35.1445 15.1309 35.2089C15.5215 36.3612 15.6309 37.536 15.6973 38.7323V39.1669C15.6973 39.6883 15.6758 39.5799 16.1103 39.7528C16.2842 39.8182 16.4814 39.8407 16.6543 39.9706C16.7851 39.9706 16.8066 39.8631 16.8066 39.7753L16.7412 39.0575V37.0556C16.7197 36.7079 16.7851 36.3593 16.8291 36.0331L16.8271 36.037Z" fill="black"/>
<path d="M33.3446 26.9407V29.0118C33.3423 29.0938 33.347 29.1759 33.3586 29.2571C33.3855 29.5024 33.5361 29.652 33.7575 29.7208C33.964 29.7752 34.1739 29.8162 34.3857 29.8435C34.5083 29.8574 34.5492 29.9113 34.5632 30.0429C34.5771 30.5066 34.5363 30.5614 34.0865 30.5335C33.0375 30.4787 31.9875 30.4657 30.9384 30.5335H30.8387C30.5117 30.5475 30.4847 30.5195 30.4847 30.1925C30.4847 30.1376 30.4987 30.0698 30.4987 30.015C30.4987 29.9153 30.5665 29.8654 30.6622 29.8654C30.8816 29.8385 31.085 29.7836 31.2904 29.7427C31.5766 29.6749 31.7392 29.4974 31.7671 29.2113C31.807 28.8981 31.807 28.5711 31.807 28.257L31.8209 24.6053C31.8254 24.4994 31.7997 24.3944 31.7467 24.3026C31.6938 24.2107 31.6157 24.1359 31.5218 24.0868C31.2752 23.9498 31.0144 23.8401 30.744 23.7597C30.6622 23.7328 30.5805 23.7198 30.5127 23.6779C30.3132 23.5822 30.3082 23.4057 30.4987 23.296C30.5665 23.2561 30.6483 23.2282 30.73 23.2142C31.557 23.0922 32.3696 22.8867 33.1552 22.601C33.3187 22.5461 33.3596 22.5611 33.3746 22.7236C33.3885 22.8233 33.3746 22.943 33.3606 23.0367C33.3337 23.2142 33.3337 23.3907 33.3337 23.5553C33.3337 23.6231 33.3476 23.6919 33.4154 23.7328C33.4832 23.7736 33.552 23.7328 33.6149 23.6929C33.9011 23.4735 34.1873 23.2701 34.5004 23.0946C34.9491 22.8493 35.4277 22.6309 35.9463 22.5631C36.5745 22.4813 37.118 22.6448 37.5956 23.0537C37.7931 23.2304 37.967 23.4319 38.1131 23.653C38.2498 23.8524 38.2627 23.8574 38.4402 23.7208C38.9587 23.3389 39.5032 22.9988 40.0895 22.7535C40.7028 22.4943 41.33 22.4544 41.9563 22.6718C42.5964 22.9031 43.0332 23.3528 43.2925 23.9661C43.5119 24.4567 43.6056 24.9633 43.6056 25.4918V29.1434C43.6056 29.3888 43.7053 29.5423 43.9466 29.662C44.2059 29.7617 44.4921 29.8116 44.7643 29.8664C44.9418 29.9063 44.9418 29.9063 44.9418 30.0858C44.9149 30.5345 44.874 30.5624 44.4372 30.5345C43.3435 30.4732 42.2472 30.4732 41.1535 30.5345C40.9342 30.5485 40.9342 30.5485 40.9222 30.3301V30.2623C40.9082 29.8933 40.9082 29.8933 41.2632 29.8136L41.6172 29.7178C41.7372 29.6896 41.8441 29.6218 41.9208 29.5254C41.9975 29.429 42.0395 29.3095 42.04 29.1863L42.0799 28.1642L42.053 25.4938C42.0425 25.2553 41.992 25.0204 41.9034 24.7987C41.5624 23.9671 40.8135 23.6679 40.0905 23.7497C39.5451 23.8046 39.0684 24.0219 38.6187 24.3361C38.523 24.4039 38.4552 24.4856 38.4691 24.6222C38.5918 25.4948 38.509 26.3673 38.524 27.2388V29.1335C38.524 29.4745 38.6606 29.638 38.9877 29.7198L39.6159 29.8564C39.7116 29.8704 39.7655 29.9113 39.7655 30.02V30.1197C39.7515 30.5016 39.7256 30.5186 39.3427 30.5146C38.2527 30.4597 37.1618 30.4747 36.0859 30.5146C35.7169 30.5285 35.687 30.4876 35.704 30.1157C35.7179 29.8963 35.7438 29.8843 35.9493 29.8435L36.398 29.7617C36.7969 29.6799 36.9434 29.5304 36.9704 29.1075L37.0103 28.1941L36.9833 25.4549C36.9564 25.1139 36.8836 24.7868 36.6971 24.4737C36.4249 23.9691 35.9991 23.7108 35.4158 23.6829C34.8294 23.643 34.3119 23.8604 33.8203 24.1316C33.4793 24.3311 33.3297 24.5674 33.3566 24.9633V26.9526L33.3446 26.9407ZM59.019 27.0234V28.945C59.0211 29.0817 59.0301 29.2181 59.0459 29.3539C59.0517 29.4443 59.0867 29.5305 59.1457 29.5994C59.2047 29.6682 59.2844 29.7161 59.373 29.7358C59.6081 29.8043 59.8503 29.8455 60.0949 29.8584C60.2315 29.8724 60.2585 29.9262 60.2724 30.0359V30.1316C60.2585 30.6083 60.2046 30.6631 59.7409 30.6362C58.7038 30.5684 57.6698 30.5814 56.6337 30.6362L56.2348 30.6502C56.1531 30.6502 56.1351 30.6103 56.1122 30.5545C56.0724 30.3657 56.0724 30.1708 56.1122 29.9821C56.1261 29.9003 56.18 29.8824 56.2618 29.8594C56.4612 29.8325 56.6307 29.7916 56.8202 29.7597C57.1612 29.6779 57.2839 29.5403 57.2968 29.1873L57.3367 28.0426V24.6901C57.3367 24.4447 57.241 24.2952 57.0236 24.1855C56.7783 24.0489 56.519 23.9541 56.2458 23.8584C56.164 23.8315 56.0823 23.8036 56.0145 23.7627C55.837 23.64 55.815 23.4635 55.9875 23.3269C56.0649 23.2633 56.1599 23.225 56.2598 23.2172C57.1323 23.0806 57.9769 22.8901 58.7946 22.5631C58.8903 22.5232 58.9312 22.5491 58.9721 22.6309C59.013 22.7127 59.0269 22.8084 59.012 22.9031L58.9721 23.5433C58.9721 23.6251 58.9322 23.7427 58.999 23.7746C59.0808 23.8295 59.1356 23.7068 59.2034 23.6749C59.6058 23.3374 60.0503 23.0535 60.5257 22.8303C60.9485 22.6309 61.3833 22.5032 61.8749 22.5312C62.7883 22.586 63.4424 23.0497 63.8642 23.8534C64.0836 24.2762 64.1774 24.7389 64.2182 25.2166L64.2581 26.2137L64.2721 29.2252C64.2861 29.4566 64.3678 29.6071 64.5992 29.6889C64.839 29.7688 65.0852 29.8282 65.3351 29.8664C65.5545 29.8933 65.5664 29.9342 65.5804 30.1386V30.2064C65.5535 30.6701 65.5255 30.6831 65.0619 30.6552C64.0451 30.6007 63.0262 30.6007 62.0095 30.6552C61.8729 30.6691 61.7373 30.6552 61.6106 30.6691C61.5289 30.6691 61.474 30.6552 61.461 30.5734C61.4341 30.3959 61.4062 30.2194 61.4471 30.0279C61.461 29.9462 61.5019 29.9053 61.5967 29.8913L62.2249 29.7916C62.4443 29.7368 62.5659 29.5922 62.5938 29.3927L62.6208 29.0108L62.6068 26.1629C62.6068 25.8358 62.5928 25.5087 62.525 25.1817C62.3615 24.4836 61.83 23.985 61.109 23.9152C60.4808 23.8474 59.9124 24.011 59.3919 24.351C59.1326 24.5145 59.0229 24.7459 59.0229 25.0321V27.0903C59.0229 27.0504 59.0229 27.0504 59.0369 27.0504L59.019 27.0234Z" fill="black"/>
<path d="M98.9329 23.1661C98.7833 22.1709 98.4144 21.2854 97.7742 20.5086C97.2164 19.8224 96.4944 19.288 95.6751 18.955C94.8176 18.601 93.9032 18.4913 92.9768 18.4644C92.5949 18.4504 87.3896 18.5322 87.0077 18.4644C86.912 18.4504 86.8441 18.4783 86.7883 18.5601C86.7205 18.6598 86.6517 18.7645 86.6108 18.8732C86.4473 19.2422 86.4473 19.2143 86.8421 19.2681C87.1692 19.3229 87.4823 19.3499 87.7964 19.4456C88.0826 19.5413 88.2871 19.7049 88.3549 20.018C88.3818 20.1676 88.4097 24.964 88.4097 27.1996L88.3549 28.7951C88.3409 28.9178 88.3279 29.0404 88.2871 29.1491C88.2322 29.3127 88.1375 29.4483 87.9739 29.5181C87.794 29.6028 87.5999 29.6535 87.4016 29.6677C87.0326 29.7075 86.9788 29.7225 86.8561 30.1313L86.8162 30.2809C86.7893 30.4584 86.8023 30.4853 86.9798 30.4853L91.0542 30.5252L92.6497 30.4983L93.7536 30.3617C95.007 30.1304 96.1249 29.6118 97.0782 28.7812C97.6228 28.3002 98.0673 27.7167 98.3865 27.064C98.7684 26.3012 98.9319 25.4685 98.9728 24.6249C99.0406 24.1483 99.0127 23.6577 98.9329 23.1671V23.1661ZM96.9565 25.1006C96.9017 25.9731 96.7252 26.8177 96.2754 27.5806C95.7031 28.5758 94.8854 29.2708 93.7546 29.5151C93.264 29.6148 92.7734 29.6647 92.2588 29.5969C91.8899 29.557 91.5369 29.5151 91.1958 29.3924C90.5826 29.1731 90.3642 28.7941 90.3512 28.1958L90.3373 19.9791C90.3373 19.4885 90.5566 19.3808 90.9096 19.3658C91.4411 19.3259 91.9866 19.3389 92.5181 19.3927C93.0839 19.4475 93.6391 19.5817 94.1674 19.7916C94.5599 19.9552 94.9235 20.1808 95.2444 20.4597C95.9803 21.0879 96.4709 21.8757 96.7401 22.8031C96.9595 23.553 96.9994 24.3158 96.9595 25.0787L96.9565 25.1006ZM110.259 26.4368C110.259 26.355 110.259 26.2872 110.245 26.2055C110.122 25.4556 109.726 24.8832 109.114 24.4474C108.719 24.1612 108.269 23.9708 107.806 23.8342C107.724 23.8072 107.656 23.7793 107.574 23.7664C107.588 23.6986 107.629 23.6846 107.67 23.6706C107.942 23.534 108.202 23.3844 108.433 23.18C108.856 22.826 109.131 22.3893 109.278 21.8578C109.359 21.5716 109.359 21.2854 109.332 20.9852C109.31 20.6341 109.209 20.2925 109.037 19.9857C108.865 19.679 108.626 19.415 108.337 19.2133C107.709 18.7496 106.974 18.5591 106.211 18.5451C104.739 18.5182 103.255 18.5451 101.784 18.5451C101.361 18.5451 100.939 18.5721 100.502 18.5053C100.421 18.4913 100.303 18.4654 100.243 18.5601C100.143 18.7376 100.024 18.9141 99.9839 19.1185C99.97 19.2143 99.9979 19.2681 100.107 19.2821L101.047 19.4187C101.416 19.4735 101.675 19.6779 101.701 20.005C101.728 20.2311 101.741 20.4585 101.741 20.6861L101.714 23.2339L101.7 28.2756C101.7 28.5748 101.66 28.8619 101.604 29.1611C101.591 29.2561 101.55 29.3452 101.488 29.4177C101.425 29.4902 101.342 29.5431 101.25 29.5699C100.978 29.6517 100.719 29.7335 100.433 29.7335C100.356 29.7262 100.28 29.7452 100.215 29.7872C100.151 29.8292 100.103 29.8919 100.079 29.9648C100.024 30.0875 99.979 30.2241 99.956 30.3467C99.9291 30.5103 99.97 30.5661 100.134 30.5462C100.256 30.5322 104.753 30.6419 105.598 30.5601C106.103 30.5053 106.595 30.4375 107.097 30.2879C107.954 30.0157 108.746 29.6198 109.372 28.9517C109.891 28.4062 110.19 27.7521 110.217 26.9892C110.257 26.8117 110.257 26.6352 110.257 26.4438L110.259 26.4368ZM103.65 20.8526L103.689 19.7627C103.689 19.5583 103.771 19.4635 103.976 19.4217C104.303 19.3539 104.63 19.3818 104.957 19.3947C105.284 19.4217 105.597 19.4625 105.924 19.5583C106.522 19.7358 106.987 20.0768 107.26 20.6482C107.384 20.908 107.449 21.192 107.451 21.4798C107.465 21.8618 107.437 22.2297 107.287 22.5967C107.056 23.1012 106.689 23.4283 106.156 23.5241C105.624 23.6198 104.112 23.5789 103.881 23.5789C103.676 23.5789 103.662 23.552 103.662 23.3476V22.0642C103.629 21.6651 103.625 21.2643 103.648 20.8646L103.65 20.8526ZM108.077 28.1839C107.846 28.7971 107.423 29.2209 106.824 29.4503C106.497 29.5729 106.169 29.6497 105.826 29.6278C105.404 29.6138 104.982 29.6278 104.56 29.546C103.988 29.4234 103.728 28.8779 103.687 28.483C103.62 27.788 103.661 27.079 103.648 26.5615V24.7625C103.648 24.5432 103.674 24.4764 103.907 24.4764L105.188 24.4903L106.061 24.59C106.674 24.7266 107.232 24.959 107.669 25.4346C108.023 25.8166 108.215 26.2793 108.256 26.7838C108.295 27.2605 108.269 27.7242 108.092 28.1739L108.077 28.1839Z" fill="black"/>
<path d="M73.4587 24.0795L73.8127 24.1344C74.1946 24.1483 74.6443 24.0117 74.7799 23.4802C74.8547 23.2264 74.8547 22.9563 74.7799 22.7024C74.6982 22.7024 74.6573 22.7702 74.6164 22.7982C74.412 22.9617 74.1806 23.0574 73.9353 23.0843C73.4447 23.1392 72.9541 23.1113 72.4775 22.9348L71.8094 22.7034C71.3434 22.5508 70.853 22.4866 70.3634 22.514C69.6684 22.5688 69.0143 22.8002 68.401 23.1272C67.7469 23.4812 67.2842 24.0127 67.0648 24.7357C66.9421 25.1585 66.9282 25.5932 66.983 26.03C67.1196 27.0252 67.6372 27.7202 68.5635 28.0882C68.6184 28.1021 68.6593 28.1281 68.7131 28.143C68.8358 28.2108 68.8497 28.2796 68.74 28.3744L68.399 28.6057L67.5813 29.1103C67.3769 29.2329 67.35 29.3297 67.4178 29.5461C67.4989 29.8006 67.6499 30.0273 67.8536 30.2002C68.0406 30.3607 68.2524 30.4896 68.4808 30.5821C68.6304 30.6499 68.6304 30.6818 68.4947 30.8015L67.7169 31.3599C67.4577 31.5594 67.1984 31.7588 66.981 32.0141C66.8298 32.1758 66.7209 32.3724 66.6638 32.5864C66.6068 32.8003 66.6034 33.025 66.6539 33.2406C66.7553 33.7136 67.003 34.1428 67.3619 34.4671C67.7163 34.7953 68.1473 35.0294 68.6154 35.1482C69.3782 35.3676 70.169 35.3795 70.9458 35.23C72.0626 35.0255 73.0399 34.5319 73.8077 33.6903C74.3392 33.1319 74.6523 32.4778 74.6802 31.696C74.71 31.2438 74.5784 30.7958 74.3089 30.4315C74.0394 30.0673 73.6495 29.8104 73.2084 29.7066L72.4725 29.57L70.2238 29.3706C69.9785 29.3566 69.7332 29.3157 69.5288 29.1931C69.2695 29.0295 69.2017 28.7164 69.3653 28.512C69.4879 28.3624 69.6375 28.2667 69.829 28.2527L70.2647 28.2128C71.1265 28.1252 71.9355 27.7566 72.5672 27.1638C72.9045 26.8516 73.1456 26.4496 73.2622 26.0051C73.4258 25.4187 73.4258 24.8085 73.2892 24.2102C73.2493 24.0606 73.2622 24.0466 73.4527 24.0735L73.4587 24.0795ZM70.1181 30.8673C70.1999 30.8813 70.2817 30.8673 70.3634 30.8673C70.9358 30.8942 71.5222 30.9351 72.0806 31.0867C72.2629 31.1406 72.4406 31.2089 72.6121 31.2911C73.1575 31.5903 73.362 32.1088 73.2931 32.6672C73.2114 33.2805 72.8704 33.7162 72.3389 34.0034C71.9849 34.2029 71.589 34.2896 71.1801 34.3305C71.0306 34.3445 70.8939 34.3305 70.7444 34.3305C70.2677 34.3445 69.804 34.2906 69.3543 34.0992C69.0412 33.9765 68.7819 33.8 68.5506 33.5537C68.0739 33.0771 67.8526 32.2045 68.5645 31.4955C69.0003 31.0967 69.4919 30.8145 70.1181 30.8673ZM71.6717 26.6154C71.3855 27.3373 70.7583 27.5557 70.1321 27.46C69.5597 27.3782 69.1369 27.0651 68.8657 26.5465C68.5117 25.8515 68.417 25.1306 68.6204 24.3797C68.77 23.8213 69.111 23.3985 69.7103 23.3027C70.4731 23.1661 71.2061 23.4393 71.591 24.2022C71.7904 24.5711 71.8772 25.0199 71.8772 25.6601C71.8632 25.9193 71.8093 26.2733 71.6727 26.6144L71.6717 26.6154ZM54.5023 25.688C54.3797 24.9521 54.1075 24.284 53.6029 23.7255C52.853 22.8939 51.8997 22.5289 50.8228 22.5259C49.8824 22.512 48.9979 22.7852 48.2062 23.2758C47.4278 23.7416 46.8573 24.4877 46.6117 25.3609C46.3803 26.1517 46.3923 26.9564 46.5718 27.7591C47.0484 29.913 48.7117 30.8384 50.7001 30.7028C51.2865 30.6629 51.8449 30.4714 52.3754 30.2122C53.1661 29.8432 53.7385 29.2579 54.1334 28.4811C54.4465 27.8409 54.5821 27.1588 54.5692 26.382L54.5013 25.687L54.5023 25.688ZM52.5678 28.7134C52.4704 29.02 52.2857 29.2916 52.0363 29.4949C51.787 29.6982 51.4838 29.8244 51.1638 29.8582C50.5655 29.9399 50.0051 29.7904 49.5015 29.4354C49.138 29.1679 48.8436 28.8175 48.6429 28.4133C48.0845 27.2685 47.9888 26.0699 48.274 24.8434C48.3658 24.4638 48.5644 24.1184 48.8464 23.8482C49.3509 23.3845 49.9363 23.2758 50.5914 23.4124C51.2196 23.549 51.6953 23.8891 52.0872 24.4076C52.4791 24.9261 52.6596 25.5244 52.7683 26.1527C52.8231 26.4658 52.8231 26.7929 52.8361 26.9973C52.8361 27.6514 52.7812 28.1939 52.5768 28.7144L52.5678 28.7134ZM84.2781 25.7977C84.1783 25.0069 83.8832 24.285 83.3238 23.6856C82.5878 22.8819 81.6335 22.5409 80.5715 22.5269C79.6581 22.513 78.8135 22.7722 78.0367 23.222C77.1642 23.7405 76.5649 24.4754 76.3335 25.4706C76.0573 26.5563 76.1731 27.7047 76.6606 28.7134C77.1094 29.6677 77.8732 30.281 78.8823 30.5532C79.9992 30.8524 81.0632 30.7167 82.0982 30.2122C82.9977 29.7764 83.6379 29.0953 84.0058 28.168C84.2252 27.6225 84.305 27.0372 84.3189 26.3551C84.3329 26.2324 84.305 26.0141 84.2791 25.7967L84.2781 25.7977ZM82.3974 28.5369C82.178 29.2728 81.7163 29.7495 80.9395 29.8592C80.3671 29.9409 79.8227 29.8043 79.3311 29.4773C78.9083 29.1911 78.6091 28.8091 78.3907 28.3604C78.1454 27.8838 78.0088 27.3792 77.955 26.8617C77.8732 26.2215 77.8732 25.5952 78.0228 24.9541C78.0513 24.8276 78.0924 24.7044 78.1454 24.5861C78.5273 23.6318 79.3719 23.196 80.3671 23.4144C81.0352 23.564 81.5388 23.9329 81.9207 24.4914C82.2897 25.0368 82.4662 25.6361 82.549 26.2863C82.5888 26.5456 82.6038 26.8178 82.5888 27.0491C82.5888 27.5806 82.5489 28.0712 82.3894 28.5479L82.3974 28.5369Z" fill="black"/>
</g>
<defs>
<clipPath id="clip0_198_2162">
<rect width="117.186" height="40.0385" fill="white"/>
</clipPath>
</defs>
  </svg>
</svg>
