<svg width="168" height="40" viewBox="0 0 168 40" fill="none" xmlns="http://www.w3.org/2000/svg">
  <svg x="71.478" y="4.000" width="25.043" height="32.000" viewBox="0 0 18 23" fill="none">
<g clip-path="url(#clip0_198_2159)">
<path d="M15.1195 11.7581C15.0928 8.95768 17.4074 7.6122 17.5115 7.54813C16.2087 5.64471 14.1852 5.38309 13.4644 5.35373C11.7425 5.17753 10.1034 6.36817 9.22773 6.36817C8.35211 6.36817 7.00396 5.37775 5.57573 5.40712C3.69634 5.43381 1.96377 6.49898 0.99471 8.18083C-0.954093 11.5605 0.498166 16.5794 2.40159 19.3264C3.33327 20.6692 4.43849 22.1828 5.89608 22.1268C7.30029 22.0707 7.82887 21.2191 9.52139 21.2191C11.2139 21.2191 11.6918 22.1268 13.1734 22.1001C14.6817 22.0707 15.6374 20.7279 16.5611 19.3798C17.6236 17.8181 18.0641 16.3097 18.0908 16.2296C18.0561 16.2163 15.1516 15.1031 15.1195 11.7581Z" fill="white"/>
<path d="M12.3301 3.53454C13.1042 2.59751 13.6248 1.29742 13.4833 0C12.3701 0.0453831 11.022 0.742147 10.2238 1.67917C9.50831 2.50675 8.88095 3.83087 9.0518 5.10159C10.2878 5.1977 11.5586 4.4689 12.3301 3.53454Z" fill="white"/>
</g>
<defs>
<clipPath id="clip0_198_2159">
<rect width="17.9814" height="22.1309" fill="white"/>
</clipPath>
</defs>
  </svg>
</svg>
